<?xml version="1.0" encoding="UTF-8" standalone="no"?>
<!-- Created with Inkscape (http://www.inkscape.org/) -->

<svg
   width="500"
   height="500"
   viewBox="0 0 132.29166 132.29167"
   version="1.1"
   id="svg1"
   xml:space="preserve"
   inkscape:version="1.4 (86a8ad7, 2024-10-11)"
   sodipodi:docname="pypi.svg"
   xmlns:inkscape="http://www.inkscape.org/namespaces/inkscape"
   xmlns:sodipodi="http://sodipodi.sourceforge.net/DTD/sodipodi-0.dtd"
   xmlns="http://www.w3.org/2000/svg"
   xmlns:svg="http://www.w3.org/2000/svg"><sodipodi:namedview
     id="namedview1"
     pagecolor="#ffffff"
     bordercolor="#666666"
     borderopacity="1.0"
     inkscape:showpageshadow="2"
     inkscape:pageopacity="0.0"
     inkscape:pagecheckerboard="0"
     inkscape:deskcolor="#d1d1d1"
     inkscape:document-units="px"
     inkscape:zoom="0.69670057"
     inkscape:cx="225.34789"
     inkscape:cy="231.8069"
     inkscape:window-width="1366"
     inkscape:window-height="705"
     inkscape:window-x="-8"
     inkscape:window-y="-8"
     inkscape:window-maximized="1"
     inkscape:current-layer="layer1" /><defs
     id="defs1" /><g
     inkscape:label="Camada 1"
     inkscape:groupmode="layer"
     id="layer1"><ellipse
       style="fill:#2b5373;fill-opacity:1;stroke-width:1.70627;stroke-linecap:round;stroke-linejoin:round;paint-order:markers stroke fill"
       id="path1"
       cx="66.145836"
       cy="66.145836"
       rx="64.002213"
       ry="66.145828" /><path
       style="fill:#0277bc;fill-opacity:1;stroke-width:1.51859;stroke-linecap:round;stroke-linejoin:round;paint-order:markers stroke fill"
       d="M 36.690058,102.94797 C 35.968135,102.62948 33.404711,101.67418 30.993566,100.82508 28.582418,99.975972 25.285228,98.773862 23.666475,98.153722 L 20.723287,97.026192 V 76.032062 55.037934 L 27.464138,52.524686 C 31.171604,51.142399 35.187632,49.652634 36.388642,49.214097 L 38.572299,48.416754 V 37.880469 27.344184 L 40.566072,26.530085 C 41.662645,26.082333 44.69603,24.953318 47.306922,24.021164 54.589057,21.421258 64.473776,17.84091 65.562238,17.408902 66.371537,17.087689 67.960289,17.473026 74.866509,19.665569 79.447082,21.119781 83.878408,22.521217 84.713894,22.779872 L 86.232956,23.250153 86.331651,40.98092 86.430341,58.711689 85.002469,59.319424 C 84.217136,59.653682 81.096618,60.833893 78.067983,61.942119 75.039348,63.05035 69.912504,64.942018 66.674999,66.145832 63.437491,67.349649 58.566988,69.142768 55.851662,70.130545 L 50.914701,71.926499 50.724817,85.547862 50.534934,99.169222 44.838442,101.18793 C 37.58808,103.75731 38.216789,103.62151 36.690058,102.94797 Z M 63.99201,47.534644 C 65.49252,46.7587 68.06863,43.735952 68.599004,42.1289 68.842497,41.391106 68.958392,39.920237 68.856546,38.860303 68.269669,32.752572 59.899506,34.508386 57.619534,41.217497 56.785496,43.67177 57.04538,45.373689 58.472048,46.800356 59.5256,47.853906 60.053306,48.09156 61.339152,48.09156 62.205898,48.09156 63.399685,47.840949 63.99201,47.534644 Z"
       id="path2" /><path
       style="fill:#fec008;fill-opacity:1;stroke-width:1.51859;stroke-linecap:round;stroke-linejoin:round;paint-order:markers stroke fill"
       d="M 56.892803,97.050592 56.99096,76.132642 61.358271,74.484662 C 63.760293,73.578282 69.058029,71.603506 73.131022,70.096278 77.204015,68.589053 83.185335,66.366275 86.42284,65.15677 L 92.309216,62.957672 92.499099,45.919262 92.688983,28.880852 101.52171,32.087901 110.35444,35.294948 110.25634,56.34728 110.15823,77.399612 104.46174,79.478862 C 101.32867,80.622452 97.272505,82.098902 95.448058,82.759872 L 92.130871,83.961642 92.03016,94.582962 91.929451,105.20427 87.182374,106.95917 C 84.571482,107.92436 79.786426,109.67812 76.548918,110.8564 73.311413,112.03469 67.616235,114.11695 63.892971,115.48364 60.169709,116.85034 57.049431,117.96854 56.959022,117.96854 56.868614,117.96854 56.838817,108.55547 56.892803,97.050592 Z M 75.706643,101.0488 C 78.506911,99.879062 81.088432,96.255342 81.205063,93.330592 81.370743,89.175912 78.257258,87.268192 74.376784,89.146692 69.653733,91.433082 67.787191,98.724632 71.366286,100.90703 72.816007,101.79102 73.849043,101.82476 75.706643,101.0488 Z"
       id="path3" /></g></svg>
